<svg width="32" height="32" viewBox="0 0 32 32" fill="none" xmlns="http://www.w3.org/2000/svg">
<path d="M24.192 17.4227V14.5773L22.0667 16L24.192 17.4227ZM25.8933 19.0147C25.8931 19.0517 25.8904 19.0887 25.8853 19.1253L25.8787 19.1627L25.864 19.2333L25.8507 19.2747C25.8443 19.296 25.8367 19.3169 25.828 19.3373L25.8093 19.3773C25.8006 19.3967 25.7913 19.4158 25.7813 19.4347L25.756 19.4747C25.7256 19.523 25.6898 19.5677 25.6493 19.608L25.6147 19.6413C25.5992 19.6553 25.5832 19.6686 25.5667 19.6813L25.528 19.7107L25.5147 19.7213L16.472 25.7507C16.3323 25.8441 16.168 25.8939 16 25.8939C15.832 25.8939 15.6677 25.8441 15.528 25.7507L6.48533 19.72L6.472 19.7093C6.44154 19.6883 6.41258 19.6651 6.38533 19.64L6.35067 19.6067L6.308 19.5613L6.28 19.524C6.24494 19.4785 6.21498 19.4293 6.19067 19.3773L6.172 19.336C6.16364 19.3154 6.15608 19.2945 6.14933 19.2733L6.136 19.2333C6.13067 19.2093 6.12533 19.1853 6.12267 19.1613L6.11467 19.124C6.10956 19.0873 6.10688 19.0504 6.10667 19.0133V12.9853C6.10668 12.9483 6.10935 12.9113 6.11467 12.8747L6.12133 12.8387L6.136 12.7667L6.14933 12.7267C6.18095 12.6197 6.23556 12.521 6.30933 12.4373L6.35067 12.392L6.38533 12.3587C6.41264 12.3336 6.44159 12.3105 6.472 12.2893L6.48533 12.2787L15.528 6.25067C15.6678 6.15745 15.832 6.10771 16 6.10771C16.168 6.10771 16.3322 6.15745 16.472 6.25067L25.5147 12.2787L25.528 12.2893L25.568 12.3187L25.6147 12.3587C25.628 12.3693 25.6373 12.38 25.6493 12.392C25.69 12.4321 25.7258 12.4769 25.756 12.5253L25.7813 12.5653C25.7914 12.5841 25.8007 12.6032 25.8093 12.6227L25.828 12.6627C25.8373 12.684 25.844 12.7053 25.8507 12.7253L25.864 12.7667C25.8693 12.7907 25.8747 12.8147 25.8773 12.8387L25.8853 12.8747C25.8905 12.9113 25.8932 12.9483 25.8933 12.9853V19.0147ZM16 0C7.164 0 0 7.16267 0 16C0 24.836 7.164 32 16 32C24.8373 32 32 24.8373 32 16C32 7.164 24.8373 0 16 0ZM16 13.9893L12.9933 16L16 18.0133L19.0067 16L16 13.9893ZM16.8507 19.488V23.4547L23.512 19.0147L20.536 17.024L16.8507 19.488ZM8.488 19.0133L15.1493 23.4533V19.488L11.464 17.0227L8.488 19.0133ZM23.512 12.9867L16.8507 8.54667V12.512L20.536 14.9787L23.512 12.9867ZM15.1493 12.512V8.54667L8.488 12.9867L11.464 14.9773L15.1493 12.512ZM7.808 14.5773V17.4227L9.93333 16L7.808 14.5773Z" fill="#595959"/>
</svg>
