<svg width="30" height="20" viewBox="0 0 16 16" fill="none" xmlns="http://www.w3.org/2000/svg">
<path d="M11.648 9.58803C11.45 9.48869 10.476 9.01003 10.2947 8.94336C10.1127 8.87736 9.98067 8.84469 9.848 9.04336C9.71667 9.24136 9.33667 9.68736 9.22134 9.81936C9.106 9.95203 8.99 9.96803 8.792 9.86936C8.594 9.76936 7.95534 9.56069 7.19867 8.88603C6.61 8.36069 6.212 7.71203 6.09667 7.51336C5.98134 7.31536 6.08467 7.20803 6.18334 7.10936C6.27267 7.02069 6.382 6.87803 6.48067 6.76269C6.58 6.64669 6.61267 6.56403 6.67934 6.43136C6.74534 6.29936 6.71267 6.18403 6.66267 6.08469C6.61267 5.98536 6.21667 5.01003 6.052 4.61336C5.89067 4.22736 5.72734 4.28003 5.606 4.27336C5.4794 4.26832 5.3527 4.2661 5.226 4.26669C5.094 4.26669 4.87934 4.31603 4.698 4.51469C4.51667 4.71269 4.00467 5.19203 4.00467 6.16736C4.00467 7.14203 4.71467 8.08403 4.81334 8.21669C4.91267 8.34869 6.21067 10.35 8.198 11.208C8.67067 11.412 9.03934 11.534 9.32734 11.6247C9.802 11.776 10.234 11.7547 10.5747 11.7034C10.9553 11.6467 11.7467 11.224 11.912 10.7614C12.0773 10.2987 12.0773 9.90203 12.0273 9.81936C11.978 9.73669 11.8467 9.68736 11.648 9.58803ZM8.03334 14.5234H8.03067C6.85051 14.5235 5.69206 14.2062 4.67667 13.6047L4.436 13.462L1.942 14.1167L2.60734 11.6847L2.45067 11.4354C1.79096 10.3849 1.44196 9.16915 1.444 7.92869C1.44467 4.29536 4.40134 1.33936 8.036 1.33936C9.796 1.33936 11.4507 2.02603 12.6947 3.27136C13.3085 3.88244 13.795 4.60918 14.126 5.40952C14.4571 6.20987 14.6261 7.06792 14.6233 7.93403C14.6213 11.5674 11.6653 14.5234 8.03334 14.5234ZM13.642 2.32536C12.9075 1.58598 12.0335 0.999719 11.0707 0.600561C10.108 0.201403 9.07556 -0.0027175 8.03334 2.73184e-05C3.66334 2.73184e-05 0.106669 3.55669 0.104669 7.92803C0.104669 9.32536 0.469335 10.6894 1.16334 11.8914L0.038002 16L4.24134 14.8974C5.40373 15.5306 6.70629 15.8625 8.03 15.8627H8.03334C12.4027 15.8627 15.96 12.306 15.962 7.93403C15.9652 6.89221 15.7618 5.86009 15.3636 4.89738C14.9654 3.93467 14.3802 3.06047 13.642 2.32536Z" fill="#F1F1F1"/>
</svg>
