<?xml version="1.0" encoding="utf-8"?>
<!-- Generator: Adobe Illustrator 24.1.1, SVG Export Plug-In . SVG Version: 6.00 Build 0)  -->
<svg version="1.1" id="Layer_1" xmlns="http://www.w3.org/2000/svg" xmlns:xlink="http://www.w3.org/1999/xlink" x="0px" y="0px"
	 viewBox="0 0 170 170" style="enable-background:new 0 0 170 170;" xml:space="preserve">
<style type="text/css">
	.st0{fill:#595959;}
	.st1{fill:#FFFFFF;}
</style>
<g>
	<path class="st0" d="M39.8,0h90.3c22,0,39.8,17.8,39.8,39.8v90.3c0,22-17.8,39.8-39.8,39.8H39.8C17.8,170,0,152.2,0,130.2V39.8
		C0,17.8,17.8,0,39.8,0z"/>
	<path class="st1" d="M112.3,68.7c0,0-9.2,28.7-9.9,31.2c-0.3-2.4-7-54.1-7-54.1c-15.6,0-24,11.1-28.4,22.9c0,0-11.2,28.8-12.1,31.2
		c0-2.3-1.7-31-1.7-31c-0.9-14.4-14.1-23.1-24.8-23.1L41.4,124c16.4,0,25.2-11.1,29.8-22.9c0,0,9.8-25.4,10.2-26.6
		c0.1,1.1,7,49.5,7,49.5c16.4,0,25.3-10.3,30-21.7l23-56.5C125.2,45.8,116.7,56.9,112.3,68.7z"/>
</g>
</svg>
