<svg id="Layer_1" data-name="Layer 1" xmlns="http://www.w3.org/2000/svg" width="64" height="64" viewBox="0 0 64 64"><rect width="64" height="64" fill="#10162f"/><path d="M56.13,47.77H44.71a.32.32,0,0,0-.34.35v3.1a.32.32,0,0,0,.35.34H56.13a.31.31,0,0,0,.35-.34V48.13a.31.31,0,0,0-.35-.33v0Zm-15-35.22c0,.07,0,.13.1.24V51.13a.34.34,0,0,1-.08.23.37.37,0,0,1-.27.13h-33a.26.26,0,0,1-.2-.05.39.39,0,0,1-.11-.27V12.75a.3.3,0,0,1,.2-.31H40.86a.48.48,0,0,1,.23.07v0ZM11.22,47.45a.32.32,0,0,0,.2.32h25.8a.32.32,0,0,0,.19-.32V16.5a.3.3,0,0,0-.2-.3H11.42a.3.3,0,0,0-.19.3ZM21.78,30.37a3.29,3.29,0,0,1,2.85,1.26.33.33,0,0,0,.47.08l2.11-1.89c.15-.08.12-.33,0-.45a7,7,0,0,0-5.59-2.53c-3.24,0-5.7,1.61-6.65,4.49a13.24,13.24,0,0,0-.48,4,11.88,11.88,0,0,0,.52,4c.95,2.91,3.39,4.5,6.64,4.5a7.1,7.1,0,0,0,5.6-2.48.33.33,0,0,0,0-.46L25.14,39.1a.34.34,0,0,0-.46.06,3.55,3.55,0,0,1-3,1.4,2.93,2.93,0,0,1-3-2.11,9.3,9.3,0,0,1-.34-3,9.26,9.26,0,0,1,.37-3,3,3,0,0,1,3-2.05Z" fill="#f2f2f2"/></svg>
