<?xml version="1.0" encoding="utf-8"?>
<!-- Generator: Adobe Illustrator 24.1.1, SVG Export Plug-In . SVG Version: 6.00 Build 0)  -->
<svg version="1.1" id="Layer_1" xmlns="http://www.w3.org/2000/svg" xmlns:xlink="http://www.w3.org/1999/xlink" x="0px" y="0px"
	 viewBox="0 0 512 512" style="enable-background:new 0 0 512 512;" xml:space="preserve">
<style type="text/css">
	.st0{fill:#595959;}
	.st1{fill:#262626;}
</style>
<path class="st0" d="M326.4,321.1l-152.1-231V311c0,22.7-13.5,42.4-33.8,51.1c-20.8,8.7-44.9,3.9-60.4-12.1L41,389.1
	c31.4,31.8,79.2,41.5,120.2,24.1c4.5-1.8,8.9-4,13-6.4l0,0l0,0c34-19.4,55.5-55.9,55.5-95.9l-0.1-36.1l96.7,146.6L423,274.3v147.6
	h55.5V90.1L326.4,321.1z"/>
<path class="st1" d="M24.7,350c0,7.2,1.4,14.4,4.2,21.1s7,12.9,12.2,18.1l39.1-39.1L24.7,350z"/>
</svg>
