<svg id="Layer_1" data-name="Layer 1" xmlns="http://www.w3.org/2000/svg" width="32" height="101" viewBox="0 0 32 101" fill="#595959"><path d="M13.33,86.14a1.3,1.3,0,0,0-1.3,1.3v3.22h2.61V87.44h0A1.31,1.31,0,0,0,13.33,86.14Z" fill="#595959"/><path d="M29.65,0H2.35C1.05,0,0,2.57,0,5.73V95.27C0,98.43,1.05,101,2.35,101h27.3C31,101,32,98.43,32,95.27V5.73C32,2.57,31,0,29.65,0ZM11.84,10.56,14.4,13V6.4h3.2V13l2.56-2.48L22.4,12.8,16,19.2,9.6,12.8ZM22.11,85.91l-5,3.46v1.29h5v2.43H9.6V87.44A3.73,3.73,0,0,1,17,86.5L22.11,83Zm0-4.78H9.6v-8H12V78.7h2.61V74h2.44V78.7h2.6V73.17h2.43Zm0-13.38a3.59,3.59,0,0,1-3,3.54l-.42-2.4a1.16,1.16,0,0,0,1-1.14v-.54a1.16,1.16,0,0,0-1.16-1.16h-.06a1.17,1.17,0,0,0-1.09.75L16.56,69a3.6,3.6,0,0,1-7-1.26v-.54a3.56,3.56,0,0,1,2-3.23l1.07,2.18a1.17,1.17,0,0,0-.65,1v.54a1.16,1.16,0,0,0,2.25.4l.83-2.2a3.61,3.61,0,0,1,3.37-2.34h.06a3.6,3.6,0,0,1,3.6,3.6ZM17.43,54.83H9.6V52.4h7.83a4.7,4.7,0,1,1,0,9.39H9.6V59.36h7.83a2.27,2.27,0,0,0,0-4.53ZM14.64,34.51V29.85h2.44v4.66h2.6V29h2.43v8H9.6V29H12v5.53Zm7.47,13.64v2.43H9.61l8.32-5.91L9.61,38.76h12.5v2.43H17.24l4.89,3.48-4.89,3.48ZM24,24H8V20.8H24Z" /></svg>